<svg width="25" height="24" viewBox="0 0 25 24" fill="none" xmlns="http://www.w3.org/2000/svg">
<path d="M13.4381 5.72691C13.4381 5.97254 13.4381 6.77312 13.4381 7.91049H17.3486L16.9246 11.3964H13.4381C13.4381 16.7724 13.4381 23.9765 13.4381 23.9765H8.81032C8.81032 23.9765 8.81032 16.8678 8.81032 11.3964H6.39893V7.91049H8.81032C8.81032 6.52805 8.81032 5.54504 8.81032 5.27134C8.81032 3.96727 8.71207 3.34852 9.26618 2.33799C9.82057 1.32751 11.3843 -0.00814899 14.089 0.0240073C16.7943 0.0573354 17.9346 0.317585 17.9346 0.317585L17.3486 4.03276C17.3486 4.03276 15.6211 3.57662 14.7732 3.73918C13.9264 3.90179 13.4381 4.42341 13.4381 5.72691Z" fill="white"/>
</svg>
