<svg width="25" height="24" viewBox="0 0 25 24" fill="none" xmlns="http://www.w3.org/2000/svg">
<path d="M18.6586 5.037C17.6695 3.88716 17.1514 2.40156 17.1926 0.889085L13.4969 0.799805C13.4969 0.799805 13.4969 0.957485 13.4969 1.17012V15.9904C13.5485 20.679 6.14064 20.5652 6.72672 15.3827C7.08504 13.322 9.29928 12.0539 11.2668 12.7708V8.99988C6.98328 8.25396 2.92392 11.6634 2.96664 16.0069C3.34104 25.4269 16.8521 25.4281 17.227 16.0069C17.1326 15.6697 17.1854 9.39229 17.172 8.86285C18.8525 9.90853 20.8078 10.4312 22.788 10.3643V6.4698C20.9573 6.4698 19.5602 5.98308 18.6586 5.037Z" fill="white"/>
</svg>
